<?xml version="1.0" encoding="UTF-8"?>
<svg id="Lag_2" data-name="Lag 2" xmlns="http://www.w3.org/2000/svg" viewBox="0 0 134.13 136.2">
  <defs>
    <style>
      .cls-1 {
        fill: #1d1d1b;
      }

      .cls-2 {
        fill: #fff;
      }

      .cls-3 {
        fill: none;
        stroke: #1d1d1b;
        stroke-miterlimit: 10;
      }
    </style>
  </defs>
  <g id="Lag_1-2" data-name="Lag 1">
    <g>
      <path class="cls-2" d="M0,118.18V0h134.13v134.13H15.95c.87-.73,1.71-1.52,2.49-2.35,8.89-9.48,17.47-19.33,26.53-28.64,7.62-7.83,13.18-9.42,23.75-11.55,20.33-4.09,40.13-4.69,55.09-21.26,19.51-21.6,7.68-44.46-12.04-60.13-29.7-23.6-56.63-1.21-64.53,29.85-3.23,12.7-4.05,35.29-12.21,45.05-2.62,3.13-6.51,5.65-9.05,8.6-1.95,2.26-.42,5.26,2.6,4.56,1.46-.34,6.34-6.22,7.12-6.16,1.58,1.95,4.81,4.12,6.16,6.07.16.23.37.35.13.66l-26.98,28.74-8.44-8.25,6.37-6.38c.98-2.73-1.63-4.83-4.03-3.24L0,118.18ZM18.23,101.24c-2.81.64-2.01,5.79,1.45,5.12s2.54-6.03-1.45-5.12Z"/>
      <path d="M15.95,134.13h-1.83L0,120.01v-1.83l8.9-8.49c2.4-1.59,5.01.52,4.03,3.24l-6.37,6.38,8.44,8.25,26.98-28.74c.24-.3.03-.43-.13-.66-1.34-1.95-4.58-4.12-6.16-6.07-.78-.06-5.65,5.82-7.12,6.16-3.02.7-4.55-2.3-2.6-4.56,2.54-2.94,6.44-5.46,9.05-8.6,8.16-9.76,8.98-32.35,12.21-45.05,7.9-31.06,34.83-53.45,64.53-29.85,19.72,15.67,31.55,38.53,12.04,60.13-14.96,16.56-34.76,17.17-55.09,21.26-10.57,2.12-16.14,3.72-23.75,11.55-9.06,9.31-17.64,19.16-26.53,28.64-.78.83-1.62,1.62-2.49,2.35ZM85.45,5.57c-18.8,1.43-29.73,21.54-33.55,37.83-3.53,15.04-3.33,31.84-12.42,44.85l6.41,6.62c20.48-14.26,50.23-7,69.56-23.74,15.43-13.36,17.46-28.5,4.82-44.84-7.68-9.93-21.44-21.74-34.82-20.72Z"/>
      <polygon class="cls-2" points="14.12 134.13 0 134.13 0 120.01 14.12 134.13"/>
      <path d="M18.23,101.24c3.99-.91,4.77,4.47,1.45,5.12s-4.26-4.47-1.45-5.12Z"/>
      <path class="cls-2" d="M85.45,5.57c13.38-1.02,27.13,10.79,34.82,20.72,12.64,16.34,10.61,31.47-4.82,44.84-19.32,16.74-49.08,9.49-69.56,23.74l-6.41-6.62c9.09-13.01,8.89-29.81,12.42-44.85,3.82-16.29,14.75-36.4,33.55-37.83ZM80.98,16.53c-2.83.64-2.26,5.97,1.46,5.12,3.17-.72,2.22-5.95-1.46-5.12ZM97.72,16.52c-2.58.56-2.78,4.75.22,5.17,4.2.58,3.9-6.07-.22-5.17ZM72.61,24.9c-2.45.57-2.5,4.87.5,5.16,4,.38,3.91-6.18-.5-5.16ZM89.35,24.89c-2.67.61-2.5,4.76.23,5.16,4.2.62,4.06-6.14-.23-5.16ZM105.83,24.91c-2.76.71-2.17,5.81,1.44,5.11,3.38-.66,2.44-6.11-1.44-5.11ZM63.09,37.57c2.2,2.49,6.14-.83,4.11-3.45-2.15-2.78-6.54.7-4.11,3.45ZM80.71,33.26c-2.12.63-2.15,4.65.54,5.13,4.29.75,4.13-6.52-.54-5.13ZM97.45,33.26c-2.4.55-2.27,4.71.54,5.12,4.05.59,4.02-6.16-.54-5.12ZM114.18,33.26c-2.47.56-2.31,4.62.27,5.12,4.04.78,4.46-6.2-.27-5.12ZM71.46,45.94c2.31,2.49,6.21-1.02,3.99-3.6-2.39-2.77-6.29,1.12-3.99,3.6ZM89.88,41.37c-3.55.33-2.91,5.53.17,5.43,3.76-.13,3.31-5.75-.17-5.43ZM106.58,41.4c-4.39.27-2.35,7.13,1.38,4.99,2.46-1.41,1.26-5.15-1.38-4.99ZM64.78,49.73c-4.11.5-2.06,7.2,1.72,4.88,2.5-1.54.86-5.2-1.72-4.88ZM79.84,54.29c2.35,2.3,6.3-1.07,3.84-3.71-2.62-2.8-6.17,1.43-3.84,3.71ZM97.99,49.73c-3.25.47-2.87,5.55.62,5.3s2.95-5.81-.62-5.3ZM114.72,49.73c-3.35.41-3.06,6.1,1.18,5.13,2.92-.67,1.95-5.51-1.18-5.13ZM72.88,58.1c-3.32.65-2.54,6.03,1.45,5.12,2.81-.64,2.01-5.79-1.45-5.12ZM88.2,62.66c2.38,2.35,6.38-1.57,3.59-3.98-2.52-2.17-6.03,1.56-3.59,3.98ZM106.08,58.1c-3.02.67-2.65,6.06,1.46,5.12,2.96-.68,2.04-5.89-1.46-5.12ZM58.48,59.7c-1.53-1.38-3.72-.93-4.44,1-1.04,2.79-1.42,8.15-2.19,11.41-.39,1.66-.85,3.31-1.32,4.95-.67,2.31-3.7,7.45.18,8.32,1.36.31,4.76-1.33,6.35-1.79,1.71-.49,3.43-.97,5.17-1.37,3.22-.75,8.42-1.1,11.2-2.14,1.3-.48,2.09-1.82,1.7-3.17-.48-1.67-3.36-3-4.77-4.13-2.83-2.28-5.54-4.76-7.86-7.56-1.19-1.43-2.93-4.54-4.02-5.52ZM80.98,66.47c-2.83.64-2.26,5.97,1.46,5.12,3.17-.72,2.22-5.95-1.46-5.12ZM97.71,66.47c-2.34.53-2.76,4-.38,4.98,4.41,1.8,5.01-6.03.38-4.98Z"/>
      <path d="M58.48,59.7c1.09.99,2.83,4.09,4.02,5.52,2.32,2.8,5.04,5.28,7.86,7.56,1.4,1.13,4.29,2.45,4.77,4.13.38,1.35-.41,2.69-1.7,3.17-2.78,1.03-7.98,1.39-11.2,2.14-1.73.4-3.46.88-5.17,1.37-1.59.46-4.99,2.1-6.35,1.79-3.88-.88-.85-6.01-.18-8.32.47-1.64.93-3.29,1.32-4.95.77-3.26,1.15-8.62,2.19-11.41.72-1.93,2.91-2.38,4.44-1ZM65.89,76.08l-7.84-7.84-2.35,10.2,10.2-2.35Z"/>
      <path d="M89.88,41.37c3.48-.32,3.94,5.3.17,5.43-3.09.11-3.73-5.1-.17-5.43Z"/>
      <path d="M105.83,24.91c3.88-1,4.82,4.45,1.44,5.11-3.61.7-4.2-4.4-1.44-5.11Z"/>
      <path d="M72.61,24.9c4.41-1.02,4.5,5.54.5,5.16-3-.29-2.95-4.59-.5-5.16Z"/>
      <path d="M79.84,54.29c-2.33-2.28,1.22-6.51,3.84-3.71,2.46,2.63-1.48,6-3.84,3.71Z"/>
      <path d="M97.99,49.73c3.57-.52,4.1,5.04.62,5.3s-3.87-4.83-.62-5.3Z"/>
      <path d="M72.88,58.1c3.46-.67,4.26,4.47,1.45,5.12-3.99.91-4.77-4.47-1.45-5.12Z"/>
      <path d="M106.08,58.1c3.5-.77,4.42,4.44,1.46,5.12-4.11.94-4.48-4.46-1.46-5.12Z"/>
      <path d="M97.72,16.52c4.13-.9,4.42,5.75.22,5.17-3-.41-2.81-4.61-.22-5.17Z"/>
      <path d="M89.35,24.89c4.28-.97,4.43,5.79.23,5.16-2.73-.4-2.9-4.56-.23-5.16Z"/>
      <path d="M63.09,37.57c-2.44-2.76,1.95-6.23,4.11-3.45,2.03,2.62-1.9,5.95-4.11,3.45Z"/>
      <path d="M80.71,33.26c4.66-1.39,4.82,5.88.54,5.13-2.69-.47-2.66-4.49-.54-5.13Z"/>
      <path d="M114.18,33.26c4.73-1.08,4.31,5.89.27,5.12-2.58-.5-2.74-4.55-.27-5.12Z"/>
      <path d="M106.58,41.4c2.64-.16,3.84,3.58,1.38,4.99-3.73,2.14-5.77-4.72-1.38-4.99Z"/>
      <path d="M97.45,33.26c4.56-1.04,4.59,5.71.54,5.12-2.81-.41-2.94-4.57-.54-5.12Z"/>
      <path d="M71.46,45.94c-2.3-2.48,1.6-6.37,3.99-3.6,2.22,2.57-1.68,6.08-3.99,3.6Z"/>
      <path d="M64.78,49.73c2.58-.32,4.22,3.34,1.72,4.88-3.78,2.32-5.83-4.38-1.72-4.88Z"/>
      <path d="M88.2,62.66c-2.45-2.42,1.07-6.15,3.59-3.98,2.8,2.41-1.21,6.33-3.59,3.98Z"/>
      <path d="M97.71,66.47c4.63-1.05,4.02,6.78-.38,4.98-2.38-.97-1.96-4.44.38-4.98Z"/>
      <path d="M80.98,16.53c3.68-.83,4.63,4.4,1.46,5.12-3.72.85-4.29-4.48-1.46-5.12Z"/>
      <path d="M114.72,49.73c3.13-.38,4.11,4.46,1.18,5.13-4.25.97-4.53-4.72-1.18-5.13Z"/>
      <path d="M80.98,66.47c3.68-.83,4.63,4.4,1.46,5.12-3.72.85-4.29-4.48-1.46-5.12Z"/>
      <polygon class="cls-2" points="65.89 76.08 55.69 78.44 58.05 68.24 65.89 76.08"/>
      <path class="cls-1" d="M44.94,135.7v-3.63h13.12v3.63h-13.12Z"/>
      <path class="cls-1" d="M48.41,127.75v3.23h-3.47v-10.1h3.47v3.23h9.65v3.63h-9.65Z"/>
      <path class="cls-1" d="M52.16,119.87h-7.21v-3.63h7.14c1.65,0,2.51-.71,2.51-1.82s-.86-1.77-2.51-1.77h-7.14v-3.63h7.21c4.42,0,6.09,2.58,6.09,5.48s-1.67,5.37-6.09,5.37Z"/>
      <path class="cls-3" d="M76.25,117.48c0,4.69-2.2,8.39-4.63,8.39h-4.69v9.84h-4.55v-26.68h9.44c2.76,0,4.44,3.13,4.44,8.46ZM71.7,117.4c0-.92-.31-1.33-.74-1.33h-4.03v2.74h4.03c.43,0,.74-.57.74-1.41Z"/>
      <path class="cls-3" d="M85.18,132.99h-4.9l-.37,2.71h-4.73l3.97-26.68h7.16l3.97,26.68h-4.73l-.37-2.71ZM84.21,125.87l-1.32-9.8h-.31l-1.32,9.8h2.96Z"/>
      <path class="cls-3" d="M105.96,122.17c0,8.77-3.83,13.53-6.69,13.53h-8.11v-26.68h8.27c3.35,0,6.54,4.99,6.54,13.15ZM101.37,122.13c0-4.31-1.38-6.06-3.48-6.06h-2.18v12.58h2.33c1.91,0,3.33-2.52,3.33-6.52Z"/>
      <path class="cls-3" d="M112.06,116.03v2.78h7.47v7.05h-7.47v2.82h7.47v7.01h-12.02v-26.68h12.02v7.01h-7.47Z"/>
      <path class="cls-3" d="M132.92,128.65v7.05h-11.63v-26.68h4.55v19.63h7.08Z"/>
    </g>
  </g>
</svg>